<svg width="539" height="400" viewBox="0 0 539 400" fill="none" xmlns="http://www.w3.org/2000/svg">
    <g clip-path="url(#clip0_1135_2)">
        <path
            d="M455.12 157.24C453.387 156.613 451.097 155.927 448.25 155.18C438.337 152.587 428.36 152.41 418.32 154.65C415.713 152.95 413.23 152.523 410.87 153.37C406.123 155.077 401.263 156.887 396.29 158.8C393.46 151.38 391.84 142.59 381.34 146.44C376.087 148.36 370.777 150.343 365.41 152.39C362.57 142.54 351.61 146.01 353.45 153.65C342.27 157.737 331.167 161.877 320.14 166.07C313.31 168.66 310.67 172.01 313.41 179.37C317.61 190.677 321.843 201.97 326.11 213.25C329.02 220.93 333.16 221.61 340.71 218.79C351.503 214.77 362.343 210.67 373.23 206.49C374.417 208.51 376.037 209.547 378.09 209.6C384.1 209.76 385.43 204.15 382.94 199.21C390.713 196.63 396.51 194.5 400.33 192.82C408.31 189.31 405.08 182.45 402.86 176.35C407.34 174.69 411.72 173.073 416 171.5C419.1 170.353 421.093 168.387 421.98 165.6C429.287 165.167 433.96 164.93 436 164.89C441.28 164.77 446.447 165.42 451.5 166.84C451.653 166.88 451.877 167.113 452.17 167.54C444.93 188.83 434.02 209.12 423.5 228.95C411.44 251.72 398.12 280.02 412.32 305.18C414.74 309.48 419.26 314.21 421.49 318.56C432.09 339.3 417.77 361.67 402.01 374.78C389.91 384.853 376.24 391.94 361 396.04C328.52 404.79 296.38 397.26 273.47 372.29C265.717 363.85 257.14 355.753 247.74 348C236.92 339.09 223.24 331.01 209.77 328.98C186.67 325.5 169.08 339.38 149.75 349.25C140.87 353.78 129.18 357.11 119.75 355C110.45 352.93 100.78 346.1 93.7 339.54C68.31 316.05 50.19 279.85 56.56 244.66C58.06 247.54 58.39 250.86 59.71 253.38C70.52 274.12 98.38 272.45 118 267.52C122.707 266.333 126.8 264.713 130.28 262.66C133.013 264.833 135.67 265.44 138.25 264.48C142.25 263 146.37 261.45 150.61 259.83C150.83 259.97 150.983 260.273 151.07 260.74C152.06 266.46 157.17 270.27 162.95 268.11C168.27 266.117 173.74 264.093 179.36 262.04C182.113 266 185.74 267.167 190.24 265.54C197 263.107 206.933 259.327 220.04 254.2C221.453 256.787 223.43 257.89 225.97 257.51C228.843 257.077 230.51 255.633 230.97 253.18C231.223 251.82 230.893 249.923 229.98 247.49C223.993 231.557 218.02 215.617 212.06 199.67C210.41 195.24 207.31 192.13 202.64 195.13C200.3 196.63 199.53 198.753 200.33 201.5C184.69 207.013 174.41 210.787 169.49 212.82C165.937 214.287 164.213 217.287 164.32 221.82C159.28 223.613 154.283 225.457 149.33 227.35C142.78 229.86 140.33 234.49 143.76 241.24C143.973 241.667 143.907 242.063 143.56 242.43C139.53 243.91 131.83 245.93 129.06 248.9C127.607 250.453 126.857 252.34 126.81 254.56C114.423 258.627 103.323 260.45 93.51 260.03C80.21 259.46 66.74 254 66.62 238.66C66.56 230.71 71.3 223.21 74.56 216.53C76.7733 211.977 78.5667 206.303 79.94 199.51C83.8267 193.523 87.1267 186.727 89.84 179.12C94.4 166.347 93.3633 154.113 86.73 142.42C84.07 137.733 81.3267 133.11 78.5 128.55C67.91 111.5 79.45 85.65 91.61 72.62C103.97 59.38 120.4 54.51 137.96 58.31C144.367 59.69 150.05 61.9 155.01 64.94C159.517 67.7 162.707 69.5 164.58 70.34C188.93 81.23 216.25 79.7 240.88 70.37C268.09 60.07 291.29 42.81 312.25 22.98C319.243 16.3666 327.773 10.85 337.84 6.42997C375.47 -10.09 407.98 13.13 428.67 43.01C443.017 63.73 452.537 86.0566 457.23 109.99C460.23 125.277 459.527 141.027 455.12 157.24Z"
            fill="#67CBAD" fill-opacity="0.1" />
        <path
            d="M276.77 161.27L275.91 161.18C273.517 160.933 272.383 159.61 272.51 157.21C273.19 144.23 273.857 131.85 274.51 120.07C274.79 114.92 277.25 114.53 281.99 115.32C285 115.82 285.61 117.83 285.23 120.67C283.583 133.17 281.853 145.847 280.04 158.7C279.933 159.468 279.532 160.165 278.923 160.644C278.313 161.123 277.542 161.347 276.77 161.27Z"
            fill="#607CB3" />
        <path
            d="M251.73 135.08C251.92 135.029 252.119 135.015 252.315 135.041C252.51 135.066 252.699 135.13 252.87 135.228C253.041 135.327 253.191 135.458 253.311 135.614C253.431 135.771 253.519 135.949 253.57 136.14L255.41 142.98C256.892 148.474 258.127 153.792 258.843 157.769C259.559 161.745 259.698 164.055 259.23 164.19L256.36 164.97C256.129 165.044 255.755 164.578 255.258 163.599C254.762 162.62 254.154 161.147 253.468 159.265C252.782 157.382 252.033 155.127 251.263 152.63C250.492 150.132 249.717 147.441 248.98 144.71L247.14 137.87C247.039 137.487 247.094 137.079 247.293 136.736C247.491 136.394 247.817 136.143 248.2 136.04L251.73 135.08Z"
            fill="#607CB3" />
        <path
            d="M209.98 138.59C210.567 138.85 211.093 139.2 211.56 139.64L247.2 172.75C247.93 173.428 248.378 174.356 248.454 175.35C248.53 176.343 248.228 177.329 247.61 178.11L247 178.88C246.76 179.183 246.463 179.436 246.126 179.624C245.788 179.811 245.417 179.93 245.033 179.974C244.649 180.018 244.26 179.985 243.889 179.878C243.518 179.771 243.171 179.591 242.87 179.35C222.843 163.29 209.913 152.813 204.08 147.92C199.88 144.41 205.03 136.37 209.98 138.59Z"
            fill="#607CB3" />
        <path
            d="M396.29 158.8L402.86 176.35C405.08 182.45 408.31 189.31 400.33 192.82C396.51 194.5 390.713 196.63 382.94 199.21L365.41 152.39C370.777 150.343 376.087 148.36 381.34 146.44C391.84 142.59 393.46 151.38 396.29 158.8Z"
            fill="#67CBAD" />
        <path
            d="M365.41 152.39L382.94 199.21C385.43 204.15 384.1 209.76 378.09 209.6C376.037 209.547 374.417 208.51 373.23 206.49L353.45 153.65C351.61 146.01 362.57 142.54 365.41 152.39Z"
            fill="#607CB3" fill-opacity="0.81" />
        <path
            d="M418.32 154.65C421.48 158.003 422.7 161.653 421.98 165.6C421.093 168.387 419.1 170.353 416 171.5C411.72 173.073 407.34 174.69 402.86 176.35L396.29 158.8C401.263 156.887 406.123 155.077 410.87 153.37C413.23 152.523 415.713 152.95 418.32 154.65Z"
            fill="#607CB3" />
        <path
            d="M455.12 157.24C457.953 158.24 460.703 159.537 463.37 161.13C474 167.45 477.79 177.5 476.23 189.42C475 198.8 471.13 206.36 466.5 215.74C459.12 230.7 465.05 245.02 481.51 248.7C500.67 252.97 518.39 245.4 536.02 239.45C536.408 239.32 536.83 239.334 537.209 239.49C537.587 239.647 537.897 239.934 538.08 240.3C538.267 240.66 538.12 241.193 537.64 241.9C533.373 248.167 527.647 252.577 520.46 255.13C507.44 259.743 494.99 261.677 483.11 260.93C478.39 260.637 473.317 258.89 467.89 255.69C459.597 250.81 454.923 243.707 453.87 234.38C452.39 221.28 459.18 208.07 464.22 196.72C465.55 193.73 466.17 190.2 466.26 187.26C466.58 177.16 462.06 170.553 452.7 167.44C452.207 167.28 452.03 167.313 452.17 167.54C451.877 167.113 451.653 166.88 451.5 166.84C446.447 165.42 441.28 164.77 436 164.89C433.96 164.93 429.287 165.167 421.98 165.6C422.7 161.653 421.48 158.003 418.32 154.65C428.36 152.41 438.337 152.587 448.25 155.18C451.097 155.927 453.387 156.613 455.12 157.24Z"
            fill="#607CB3" fill-opacity="0.15" />
        <path
            d="M353.45 153.65L373.23 206.49C362.343 210.67 351.503 214.77 340.71 218.79C333.16 221.61 329.02 220.93 326.11 213.25C321.843 201.97 317.61 190.677 313.41 179.37C310.67 172.01 313.31 168.66 320.14 166.07C331.167 161.877 342.27 157.737 353.45 153.65Z"
            fill="#67CBAD" fill-opacity="0.5" />
        <path
            d="M79.94 199.51C78.5667 206.303 76.7733 211.977 74.56 216.53C71.3 223.21 66.56 230.71 66.62 238.66C66.74 254 80.21 259.46 93.51 260.03C103.323 260.45 114.423 258.627 126.81 254.56C127.21 258 128.367 260.7 130.28 262.66C126.8 264.713 122.707 266.333 118 267.52C98.38 272.45 70.52 274.12 59.71 253.38C58.39 250.86 58.06 247.54 56.56 244.66C56.8533 243.307 57.0133 241.88 57.04 240.38C57.2 229.26 61.96 219.23 66.51 209.35C67.83 206.477 68.67 203.953 69.03 201.78C74.44 168.65 29.78 174.79 12.24 179.23C8.69 180.13 1.95 179.2 0 175.63V174.91C1.83333 172.77 4.50667 170.977 8.02 169.53C25.3733 162.383 42.71 162.107 60.03 168.7C72.34 173.39 81.11 183.56 79.67 197.33C79.5433 198.543 79.6333 199.27 79.94 199.51Z"
            fill="#607CB3" fill-opacity="0.15" />
        <path
            d="M220.04 254.2L200.33 201.5C199.53 198.753 200.3 196.63 202.64 195.13C207.31 192.13 210.41 195.24 212.06 199.67C218.02 215.617 223.993 231.557 229.98 247.49C230.893 249.923 231.223 251.82 230.97 253.18C230.51 255.633 228.843 257.077 225.97 257.51C223.43 257.89 221.453 256.787 220.04 254.2Z"
            fill="#607CB3" fill-opacity="0.81" />
        <path
            d="M200.33 201.5L220.04 254.2C206.933 259.327 197 263.107 190.24 265.54C185.74 267.167 182.113 266 179.36 262.04L164.32 221.82C164.213 217.287 165.937 214.287 169.49 212.82C174.41 210.787 184.69 207.013 200.33 201.5Z"
            fill="#67CBAD" fill-opacity="0.5" />
        <path
            d="M164.32 221.82L179.36 262.04C173.74 264.093 168.27 266.117 162.95 268.11C157.17 270.27 152.06 266.46 151.07 260.74C150.983 260.273 150.83 259.97 150.61 259.83C148.583 254.517 146.607 249.177 144.68 243.81C144.447 243.157 144.073 242.697 143.56 242.43C143.907 242.063 143.973 241.667 143.76 241.24C140.33 234.49 142.78 229.86 149.33 227.35C154.283 225.457 159.28 223.613 164.32 221.82Z"
            fill="#67CBAD" />
        <path
            d="M143.56 242.43C144.073 242.697 144.447 243.157 144.68 243.81C146.607 249.177 148.583 254.517 150.61 259.83C146.37 261.45 142.25 263 138.25 264.48C135.67 265.44 133.013 264.833 130.28 262.66C128.367 260.7 127.21 258 126.81 254.56C126.857 252.34 127.607 250.453 129.06 248.9C131.83 245.93 139.53 243.91 143.56 242.43Z"
            fill="#607CB3" />
        <path
            d="M300.92 260.82C298.147 256.407 296.19 253.07 295.05 250.81C294.716 250.147 294.643 249.383 294.845 248.668C295.047 247.954 295.509 247.341 296.14 246.95L296.6 246.67C298.693 245.383 300.467 245.733 301.92 247.72C311.293 260.5 320.377 272.923 329.17 284.99C331.97 288.84 333.16 291.37 328.76 294.52C324.81 297.34 322.99 295.71 320.7 292.11C314.073 281.703 307.48 271.273 300.92 260.82Z"
            fill="#607CB3" />
        <path
            d="M260.15 257.57C260.45 256.852 261.016 256.278 261.73 255.968C262.445 255.659 263.251 255.638 263.98 255.91L264.79 256.21C267.05 257.057 267.813 258.627 267.08 260.92C263.013 273.58 259 286.027 255.04 298.26C253.75 302.25 242.57 300 245.26 293.44C249.047 284.2 254.01 272.243 260.15 257.57Z"
            fill="#607CB3" />
        <path
            d="M282.71 257.5L283.16 257.49C284.813 257.45 285.677 258.257 285.75 259.91L286.9 284.61C286.993 286.69 286 287.737 283.92 287.75H282.71C280.677 287.763 279.697 286.753 279.77 284.72L280.67 259.53C280.69 258.996 280.912 258.49 281.29 258.113C281.669 257.736 282.176 257.517 282.71 257.5Z"
            fill="#607CB3" />
    </g>
    <defs>
        <clipPath id="clip0_1135_2">
            <rect width="539" height="400" fill="white" />
        </clipPath>
    </defs>
</svg>
    