<svg width="501" height="500" viewBox="0 0 501 500" fill="none" xmlns="http://www.w3.org/2000/svg">
<path d="M500.001 0H0.00100708V500H500.001V0Z" fill="url(#paint0_linear_1004_111)"/>
<path opacity="0.61" d="M500.067 232.544V131.734C481.475 136.648 466.462 150.358 459.753 168.149C454.34 158.416 443.956 151.828 432.029 151.828C422.872 151.828 414.627 155.714 408.839 161.922C400.198 139.862 378.739 124.232 353.616 124.232C321.673 124.232 295.642 149.49 294.374 181.121C292.473 180.687 290.498 180.449 288.465 180.449C279.269 180.449 271.167 185.13 266.409 192.239C261.267 175.152 245.419 162.701 226.656 162.701C213.128 162.701 201.115 169.175 193.535 179.19C188.711 158.659 170.292 143.37 148.29 143.37C124.96 143.37 105.647 160.557 102.313 182.96C97.482 176.417 89.719 172.171 80.961 172.171C73.608 172.171 66.954 175.164 62.15 179.997C59.14 164.788 45.73 153.319 29.637 153.319C24.003 153.319 18.699 154.729 14.053 157.209C14.24 155.939 14.34 154.641 14.34 153.319C14.34 143.064 8.517 134.175 0 129.76V181.689V232.544H500.067Z" fill="#BDDBF3"/>
<path d="M500.067 302.229V222.026C494.727 219.606 488.804 218.248 482.559 218.248C471.745 218.248 461.881 222.296 454.382 228.95C447.856 203.026 424.396 183.832 396.446 183.832C383.123 183.832 370.821 188.197 360.884 195.57C360.947 194.626 360.99 193.676 360.99 192.716C360.99 169.257 341.973 150.24 318.514 150.24C295.055 150.24 276.038 169.257 276.038 192.716C276.038 197.358 276.793 201.822 278.17 206.003C270.91 200.209 261.714 196.737 251.703 196.737C235.933 196.737 222.18 205.338 214.853 218.099C209.739 213.388 202.913 210.508 195.413 210.508C188.578 210.508 182.305 212.901 177.375 216.889C169.895 204.832 156.545 196.799 141.314 196.799C121.018 196.799 104.061 211.06 99.892 230.105C88.935 216.718 72.286 208.17 53.637 208.17C30.093 208.17 9.737 221.794 0.0019989 241.584V302.23H500.067V302.229Z" fill="#C4DFF4"/>
<path d="M500.067 354.217V239.674C479.072 249.804 463.945 270.172 461.179 294.308C452.866 283.847 440.043 277.132 425.644 277.132C411.083 277.132 398.134 283.999 389.831 294.661C381.948 278.044 365.022 266.55 345.407 266.55C345.372 266.55 345.338 266.553 345.303 266.553C345.365 265.583 345.407 264.608 345.407 263.623C345.407 238.562 325.092 218.247 300.031 218.247C275.294 218.247 255.195 238.044 254.679 262.657C241.952 248.444 223.469 239.493 202.889 239.493C175.91 239.493 152.538 254.875 141.019 277.338C134.948 271.712 126.826 268.268 117.896 268.268C110.023 268.268 102.781 270.949 97.015 275.437C89.656 260.311 74.143 249.884 56.191 249.884C47.309 249.884 39.031 252.445 32.034 256.856C29.406 239.287 16.706 225.019 0.00100708 220.098V354.217H500.067Z" fill="#CAE2F5"/>
<path d="M500.067 427.187V314.635C498.087 314.264 496.047 314.062 493.959 314.062C477.92 314.062 464.558 325.5 461.571 340.663C455.554 334.315 447.049 330.349 437.612 330.349C430.954 330.349 424.762 332.326 419.577 335.716C414.427 313.476 394.507 296.894 370.701 296.894C354.011 296.894 339.234 305.048 330.11 317.582C324.608 299.005 307.423 285.448 287.061 285.448C262.775 285.448 243.006 304.732 242.199 328.821C236.751 324.854 230.047 322.508 222.791 322.508C209.997 322.508 198.911 329.79 193.43 340.431C184.224 329.476 170.428 322.508 154.999 322.508C148.65 322.508 142.582 323.699 136.991 325.85C137.534 323.474 137.831 321.004 137.831 318.463C137.831 300.229 123.049 285.447 104.815 285.447C90.908 285.447 79.017 294.05 74.154 306.221C65.035 293.639 50.229 285.447 33.502 285.447C20.625 285.447 8.88501 290.302 0.00100708 298.275V427.187H500.067Z" fill="#D7E9F8"/>
<path d="M500.067 480.275V368.028C478.838 370.548 460.421 382.226 448.868 399.001C442.734 395.879 435.798 394.108 428.444 394.108C411.361 394.108 396.499 403.606 388.844 417.609C383.274 411.977 375.545 408.484 366.997 408.484C363.413 408.484 359.975 409.104 356.776 410.232C357.645 406.737 358.113 403.085 358.113 399.321C358.113 374.411 337.919 354.218 313.01 354.218C292.743 354.218 275.6 367.586 269.912 385.986C264.553 381.433 257.616 378.681 250.034 378.681C237.874 378.681 227.365 385.746 222.384 395.994C214.128 385.459 201.296 378.681 186.873 378.681C163.413 378.681 144.143 396.594 141.979 419.487C128.658 403.879 108.856 393.97 86.728 393.97C70.83 393.97 56.135 399.093 44.175 407.758C39.948 387.233 21.777 371.8 0.00100708 371.8V480.275H500.067Z" fill="#DEEDF9"/>
<path d="M500.067 499.917V378.506C487.733 384.899 479.3 397.772 479.3 412.624C479.3 414.538 479.445 416.418 479.715 418.257C472.987 414.666 465.306 412.624 457.147 412.624C433.842 412.624 414.422 429.233 410.063 451.259C403.105 444.26 393.47 439.925 382.821 439.925C370.139 439.925 358.896 446.074 351.9 455.549C347.072 423.106 319.104 398.216 285.318 398.216C253.455 398.216 226.78 420.358 219.795 450.09C208.819 435.586 191.422 426.21 171.83 426.21C144.658 426.21 121.707 444.24 114.261 468.986C107.369 458.692 95.637 451.912 82.319 451.912C76.067 451.912 70.169 453.415 64.952 456.065C57.72 430.979 34.608 412.623 7.19401 412.623C4.75801 412.623 2.36101 412.785 0.00100708 413.066V499.916H500.067V499.917Z" fill="#F2F8FD"/>
<path d="M279.931 159.391L285.926 177.728C286.352 179.031 287.957 179.497 289.014 178.624L306.918 163.844C306.918 163.844 287.892 156.423 287.892 156.827C287.892 157.232 279.931 159.391 279.931 159.391Z" fill="#B5D1DB"/>
<path d="M327.17 124.148C315.478 128.773 277.737 144.238 263.453 150.098C261.567 150.872 261.68 153.577 263.622 154.196L279.931 159.391L285.907 177.671C286.148 178.406 286.755 178.88 287.432 179.007C287.981 179.11 288.792 164.204 288.792 164.204C288.792 164.204 305.937 176.919 314.07 182.925C316.074 184.404 318.935 183.291 319.409 180.847C321.832 168.361 327.889 137.142 329.96 126.469C330.272 124.863 328.69 123.547 327.17 124.148Z" fill="white"/>
<path d="M287.432 179.007C287.981 179.11 288.792 164.204 288.792 164.204L316.959 137.747C317.149 137.568 316.922 137.266 316.698 137.4L279.931 159.391L285.907 177.671C286.148 178.406 286.755 178.88 287.432 179.007Z" fill="#D6E2EA"/>
<path d="M153 231.841C179.056 231.761 213.693 217.068 220.645 188.855C223.451 177.47 220.957 165.27 211.933 156.961C200.529 146.459 188.008 156.055 191.089 170.712C196.15 194.789 225.556 212.618 247.907 212.87C260.824 213.016 272.944 206.822 277.587 194.164" stroke="white" stroke-width="2" stroke-miterlimit="10" stroke-dasharray="5 5"/>
<defs>
<linearGradient id="paint0_linear_1004_111" x1="79.2478" y1="545.754" x2="420.754" y2="-45.7528" gradientUnits="userSpaceOnUse">
<stop stop-color="#BDDBF3"/>
<stop offset="1" stop-color="#72B3E3"/>
</linearGradient>
</defs>
</svg>
