<svg width="357" height="275" viewBox="0 0 357 275" fill="none" xmlns="http://www.w3.org/2000/svg">
<rect width="357" height="275" fill="#F6F4F5"/>
<path d="M154.375 135.025H222.8L200.575 105.1L182.55 128.725L170.65 113.5L154.375 135.025ZM139.5 166C136.7 166 134.25 164.95 132.15 162.85C130.05 160.75 129 158.3 129 155.5V57.5C129 54.7 130.05 52.25 132.15 50.15C134.25 48.05 136.7 47 139.5 47H237.5C240.3 47 242.75 48.05 244.85 50.15C246.95 52.25 248 54.7 248 57.5V155.5C248 158.3 246.95 160.75 244.85 162.85C242.75 164.95 240.3 166 237.5 166H139.5ZM139.5 155.5H237.5V57.5H139.5V155.5ZM118.5 187C115.7 187 113.25 185.95 111.15 183.85C109.05 181.75 108 179.3 108 176.5V68H118.5V176.5H227V187H118.5Z" fill="white"/>
</svg>
